<svg width="26" height="26" viewBox="0 0 26 26" fill="none" xmlns="http://www.w3.org/2000/svg">
<g clip-path="url(#clip0)">
<path d="M3.89757 17.4013C3.75164 17.6115 3.63003 17.8279 3.53274 18.0566C3.07671 19.1446 3.22264 20.3623 3.92189 21.3205C3.95837 21.3699 3.99486 21.4256 4.04958 21.4936C4.06174 21.5121 4.06782 21.5245 4.08606 21.543C4.15295 21.611 4.19551 21.6728 4.25631 21.7223C4.31104 21.7779 4.36576 21.8274 4.41441 21.8645C4.42657 21.8768 4.42657 21.883 4.43265 21.883C4.45089 21.9016 4.46913 21.9201 4.48737 21.9387C4.74883 22.1488 5.03461 22.3157 5.34471 22.4517C5.58793 22.5568 6.03181 22.6866 6.60337 22.6866C7.18101 22.6866 7.8985 22.5383 8.64032 22.0314C8.95042 21.8212 9.24228 21.5678 9.53414 21.2772C9.64359 21.166 9.74088 21.0485 9.84425 20.9372C10.1544 20.5663 10.4766 20.282 10.805 20.078H10.8354C10.9387 19.9914 11.0603 19.9296 11.1819 19.8802C11.4252 19.7751 11.6745 19.738 11.9359 19.7504H11.9481C11.9785 19.7504 12.0028 19.7504 12.0332 19.7504L12.0697 19.7627C12.2947 19.7813 12.471 19.8369 12.5744 19.874L12.5865 19.8864C12.5987 19.8864 12.5987 19.8864 12.5987 19.8864C12.7872 19.9605 12.9635 20.078 13.1094 20.2078L13.985 21.0052L14.0276 19.7813C14.0276 19.6205 14.0398 19.4598 14.058 19.2991L14.1066 18.9653L13.8269 18.7675C13.6202 18.6191 13.4013 18.5017 13.1642 18.4089C12.8176 18.2668 12.2521 18.106 11.5833 18.174C11.5529 18.174 11.5346 18.174 11.5103 18.1864H11.492C11.4373 18.1864 11.3826 18.1988 11.334 18.2049C11.2428 18.2173 11.1455 18.242 11.0543 18.2606C10.8779 18.31 10.7259 18.3533 10.5861 18.4089C10.4462 18.4646 10.3064 18.5326 10.1604 18.6253C9.74088 18.854 9.33957 19.1755 8.96866 19.5711C8.86529 19.6762 8.76193 19.7874 8.65856 19.9111C8.37278 20.2634 8.06268 20.5354 7.75865 20.7332C6.98644 21.234 6.34191 21.1474 5.93452 20.9805C5.76427 20.9125 5.61834 20.8198 5.47848 20.7085C5.4724 20.7085 5.4724 20.7023 5.46024 20.69C5.44808 20.6776 5.442 20.6714 5.42984 20.6714L5.4116 20.6529C5.39336 20.6343 5.37512 20.6158 5.35688 20.6034C5.30215 20.5478 5.24743 20.4736 5.1927 20.3994L5.12582 20.3129C4.79747 19.8184 4.73667 19.2064 4.96773 18.6686V18.6377C5.05285 18.4584 5.15622 18.2977 5.29607 18.1431L6.15341 17.2159L4.89476 17.185C4.72451 17.185 4.56642 17.1726 4.40833 17.1541L4.09214 17.1232L3.89757 17.4013ZM17.6759 17.1726C17.4266 17.2097 17.1833 17.2777 16.9584 17.3704C16.6604 17.5002 16.3625 17.6733 16.1132 17.8835C16.0281 17.9515 15.9551 18.0257 15.87 18.0999L15.8578 18.1122L15.8457 18.1246C15.797 18.174 15.7544 18.2297 15.7058 18.2729L15.6936 18.2853C15.3288 18.7118 15.0674 19.2249 14.9275 19.8245C14.8241 20.2325 14.7877 20.6961 14.7998 21.1783C14.7998 21.339 14.812 21.4812 14.8302 21.6296C14.8667 22.0623 14.8606 22.4517 14.7816 22.7917C14.6052 23.719 14.0823 24.1146 13.6628 24.2877C13.5047 24.3557 13.3344 24.3928 13.1581 24.4113C13.0182 24.4299 12.8602 24.4299 12.7142 24.399C12.5561 24.3804 12.4163 24.331 12.2886 24.2877C11.8447 24.1084 11.4981 23.7684 11.3218 23.3295C11.3096 23.3172 11.3096 23.311 11.3096 23.311C11.2245 23.1317 11.188 22.9339 11.1819 22.7237L11.1272 21.4936L10.2456 22.3343C10.1179 22.4579 9.99626 22.5692 9.88073 22.6557L9.61927 22.8659L9.67399 23.2059C9.72264 23.4593 9.78344 23.7004 9.88073 23.923C10.2273 24.7451 10.8658 25.388 11.6927 25.728C11.9359 25.8331 12.1852 25.9011 12.4588 25.9444C12.6473 25.9753 12.8115 25.9938 12.9818 25.9938C13.0851 25.9938 13.2067 25.9815 13.3162 25.9753C13.6445 25.9382 13.9607 25.864 14.2587 25.7404C14.7816 25.524 16.0098 24.8317 16.3321 22.9957C16.3868 22.6619 16.4172 22.3034 16.4051 21.9387C16.3929 21.7656 16.3868 21.6234 16.3746 21.4874C16.326 21.0114 16.3564 20.5787 16.4415 20.2078C16.5327 19.8307 16.6848 19.5155 16.9097 19.2806L16.9219 19.262C16.9584 19.2249 16.9766 19.2064 16.9949 19.1878C17.0253 19.1693 17.0435 19.1507 17.0617 19.1322L17.0921 19.1013C17.2624 18.9591 17.4266 18.8849 17.5299 18.8355L17.5482 18.8231C17.7367 18.7489 17.9373 18.7118 18.1441 18.6995L19.3845 18.6315L18.521 17.7351C18.4177 17.6115 18.3082 17.5002 18.2049 17.3642L17.9981 17.1108L17.6759 17.1726ZM18.7825 12.1778C18.6366 12.388 18.5028 12.6044 18.4116 12.8331C18.2718 13.1916 18.1015 13.748 18.1805 14.4341C18.1805 14.4527 18.1805 14.4836 18.1805 14.5083L18.1927 14.5269C18.2049 14.5825 18.2049 14.632 18.2109 14.6752C18.2292 14.7679 18.2474 14.8669 18.2657 14.9596C18.3204 15.1388 18.3569 15.281 18.4238 15.4232C18.4785 15.553 18.5454 15.6952 18.6366 15.8497C18.8676 16.2639 19.196 16.6657 19.5973 17.0428C19.7067 17.1479 19.8223 17.253 19.9317 17.3457C20.2844 17.6362 20.5641 17.9391 20.7587 18.242C21.2633 18.9962 21.166 19.6329 21.0019 20.0285C20.935 20.1893 20.8438 20.3438 20.7343 20.4736C20.7222 20.486 20.7222 20.4922 20.7161 20.4922C20.7039 20.5107 20.6978 20.5107 20.6857 20.5292H20.6735C20.6553 20.5602 20.6249 20.5787 20.6066 20.6034C20.5762 20.6343 20.5337 20.6776 20.4972 20.7085C20.4972 20.7085 20.4972 20.7085 20.485 20.7085C20.4729 20.7209 20.4546 20.7394 20.4364 20.7456L20.3269 20.8321C19.8223 21.166 19.2021 21.2216 18.6487 20.9929C18.6366 20.9929 18.6305 20.9929 18.6305 20.9929C18.442 20.9187 18.2657 20.8012 18.1076 20.6591L17.2077 19.8431L17.1894 21.0856C17.1773 21.2463 17.1773 21.4194 17.159 21.5616L17.1225 21.9016L17.3901 22.0932C17.6029 22.2416 17.8279 22.3652 18.0529 22.4641C18.4602 22.6372 18.892 22.7175 19.3297 22.7175C20.029 22.7175 20.7283 22.4888 21.2937 22.0747C21.3485 22.0376 21.3971 22.0005 21.4518 21.951C21.4701 21.9387 21.4701 21.9387 21.4883 21.9325C21.5552 21.8768 21.616 21.8212 21.6829 21.7532L21.695 21.7408C21.7072 21.7285 21.7133 21.7223 21.7254 21.7099C21.7923 21.6419 21.8471 21.5801 21.9139 21.4998H21.9261C21.9565 21.4627 21.9808 21.4256 21.9991 21.3947L22.0112 21.3761C22.0416 21.3452 22.066 21.3081 22.0842 21.2834L22.0964 21.271C22.1328 21.2154 22.1632 21.166 22.1997 21.1227C22.1997 21.1103 22.218 21.0918 22.218 21.0732L22.2301 21.0609C22.3152 20.9187 22.3882 20.7765 22.4429 20.6343C22.6558 20.1336 23.0267 18.8107 22.0355 17.321C21.8227 17.0057 21.5674 16.7152 21.2694 16.4246C21.1478 16.3195 21.0444 16.2268 20.9228 16.1341C20.5519 15.8188 20.2601 15.4974 20.0594 15.1759L20.0472 15.1574C19.9621 15.0461 19.9074 14.9287 19.8527 14.8174C19.7615 14.5825 19.7128 14.3229 19.725 14.0694C19.725 14.0323 19.725 14.0138 19.725 13.9829V13.9643C19.7371 13.9643 19.7371 13.952 19.7371 13.9458C19.7493 13.7727 19.7919 13.6058 19.8466 13.4513C19.8587 13.4513 19.8587 13.4389 19.8587 13.4327C19.9439 13.2534 20.0472 13.0804 20.1871 12.932L21.0262 12.0171L19.7979 11.98C19.6277 11.98 19.4696 11.9677 19.3115 11.9491L18.9832 11.8997L18.7825 12.1778ZM2.79093 9.66809C2.54163 9.71755 2.29841 9.77936 2.07343 9.87827C1.35594 10.1688 0.772217 10.7128 0.395229 11.3928C0.395229 11.4113 0.383068 11.4237 0.376988 11.4299V11.4422C0.340505 11.5164 0.304022 11.5906 0.255379 11.6895V11.7204C0.243218 11.7204 0.243218 11.7204 0.243218 11.7204V11.7513V11.7637C0.152011 11.9924 0.0851263 12.2273 0.0486436 12.456C0.0364827 12.524 0.0182413 12.5982 0.0182413 12.6724C0.0182413 12.6909 0.00608045 12.7218 0.00608045 12.7404C0 12.8269 0 12.9073 0 12.9815C0 13.0556 0 13.1236 0.0121609 13.1916V13.2102C0.0121609 13.2411 0.0121609 13.2658 0.0243218 13.3029C0.054724 13.6367 0.13377 13.9643 0.26754 14.2672C0.480355 14.7865 1.16745 16.0166 3.00374 16.3319C3.33817 16.3875 3.70299 16.4184 4.06174 16.4061C4.23199 16.4061 4.37792 16.3937 4.51777 16.3875C4.99205 16.3381 5.442 16.369 5.81291 16.4555C6.19598 16.5421 6.51216 16.6904 6.75538 16.9192L6.77362 16.9315C6.79186 16.9501 6.82834 16.981 6.84659 16.9995V17.0119C6.87699 17.0304 6.88307 17.049 6.91347 17.0799C6.91347 17.0922 6.92563 17.0922 6.92563 17.0922L6.93779 17.1108C7.06548 17.2715 7.15061 17.4322 7.19925 17.5373C7.21141 17.5497 7.21141 17.5559 7.21141 17.5682C7.28438 17.7475 7.33302 17.9453 7.3391 18.1431L7.39383 19.3609L8.26941 18.5264C8.3971 18.4151 8.51871 18.31 8.64032 18.2049L8.90178 18.0071L8.84705 17.6671C8.81057 17.4137 8.73761 17.1664 8.64032 16.9377C8.51263 16.6472 8.34238 16.3443 8.12956 16.097C8.0566 16.0105 7.98971 15.9239 7.91675 15.8621C7.90458 15.8436 7.8985 15.8436 7.88634 15.8312C7.8377 15.7817 7.78297 15.7385 7.74041 15.7014L7.72825 15.689C7.30262 15.3181 6.78578 15.0647 6.18382 14.9349C5.77643 14.8298 5.32039 14.7927 4.83396 14.805C4.67587 14.805 4.52385 14.8174 4.37792 14.8359C3.90973 14.8545 3.49018 14.8359 3.13751 14.7679C2.24369 14.5763 1.85454 14.0571 1.68428 13.6614C1.6174 13.5007 1.58092 13.3276 1.56268 13.1607V13.1236V13.0742C1.55051 13.0433 1.55051 13.0062 1.55051 12.9876C1.55051 12.9135 1.56268 12.8269 1.58092 12.7342L1.59308 12.6229C1.71469 12.048 2.10384 11.572 2.66324 11.3433L2.6754 11.331C2.86389 11.2568 3.06455 11.2197 3.27128 11.2073L4.51169 11.1393L3.63611 10.2306C3.52666 10.1194 3.42329 9.98336 3.31993 9.87209L3.11319 9.61864L2.79093 9.66809ZM17.7184 7.46743C17.609 7.5787 17.4752 7.68378 17.3536 7.78887L17.0861 7.98669L17.1408 8.32668C17.1894 8.58012 17.2502 8.82739 17.3536 9.05611C17.4752 9.34665 17.6515 9.64337 17.8583 9.89681C17.9312 9.98336 18.0042 10.0699 18.0833 10.1441C18.0833 10.1441 18.0954 10.1564 18.1015 10.1626C18.1501 10.2121 18.1927 10.2492 18.2292 10.2739L18.2596 10.3048C18.3082 10.3419 18.3508 10.3913 18.4055 10.4284C18.6487 10.6201 18.9102 10.7684 19.1777 10.8797C19.3845 10.9662 19.5973 11.0281 19.8101 11.0713C20.2175 11.1641 20.6674 11.2011 21.1478 11.195C21.3059 11.195 21.4579 11.1826 21.6038 11.1641C22.0599 11.127 22.4794 11.1455 22.8321 11.2197C23.7259 11.4113 24.1151 11.9182 24.2853 12.3262C24.3522 12.4869 24.3948 12.6476 24.413 12.8269C24.4252 12.9567 24.4252 13.1113 24.4008 13.2596C24.3704 13.408 24.334 13.544 24.2792 13.6738C24.1029 14.1189 23.7563 14.4589 23.3124 14.6381L23.282 14.6505C23.0935 14.7247 22.899 14.7618 22.6983 14.7803L21.4579 14.8359L22.3213 15.7323C22.4429 15.8559 22.5524 15.9796 22.6497 16.1032L22.8564 16.3566L23.1848 16.2886C23.4341 16.2392 23.6894 16.1774 23.9083 16.0785C24.7292 15.7385 25.3798 15.0956 25.7203 14.2734C25.8115 14.0385 25.8906 13.7789 25.9331 13.5193C25.9696 13.2287 25.9878 12.932 25.9635 12.6476C25.927 12.3262 25.8419 12.0048 25.7142 11.7019C25.5075 11.1888 24.8204 9.97099 23.0084 9.64955C22.6618 9.58155 22.3031 9.563 21.92 9.563C21.7498 9.57537 21.6099 9.58155 21.4761 9.59391C20.9897 9.64337 20.5519 9.61246 20.181 9.52591L20.1506 9.51355C20.0108 9.49501 19.8891 9.45792 19.7675 9.40846C19.5243 9.30338 19.3237 9.1612 19.1352 8.97575L19.1169 8.9572C19.1048 8.93866 19.0865 8.92629 19.0804 8.90775L19.05 8.87066C18.9102 8.70994 18.8251 8.54921 18.7825 8.44413C18.7825 8.43176 18.7825 8.42558 18.7703 8.42558C18.6974 8.24631 18.6609 8.0485 18.6487 7.83833L18.5819 6.62672L17.7184 7.46743ZM4.31104 3.91916C4.26239 3.95625 4.19551 3.99952 4.14079 4.04898C4.12254 4.06752 4.1043 4.07989 4.09214 4.09843H4.08606C4.03742 4.1417 3.97661 4.19116 3.90973 4.25915C3.855 4.31479 3.80636 4.37042 3.75772 4.41988L3.75164 4.42606C3.7334 4.4446 3.71515 4.46315 3.70299 4.48169L3.69691 4.49406C3.47802 4.7475 3.31384 5.03186 3.18007 5.33476C2.96726 5.84784 2.59635 7.17689 3.60571 8.67285C3.80028 8.97575 4.04958 9.26629 4.34752 9.54446C4.45697 9.65573 4.5725 9.75464 4.69411 9.84736C5.05893 10.1626 5.35688 10.4841 5.55145 10.8055C5.75819 11.1393 5.86763 11.467 5.88588 11.7884V11.8193V11.912V11.9244C5.88588 11.9553 5.88588 11.98 5.88588 12.0109V12.048C5.85547 12.2582 5.80075 12.4375 5.75819 12.5426V12.5549C5.67306 12.7466 5.56969 12.9135 5.42984 13.068L4.58466 13.9829L5.82507 14.02C5.99532 14.02 6.1595 14.0323 6.31151 14.0509L6.63985 14.088L6.83442 13.8345C6.97428 13.6243 7.10196 13.4018 7.19925 13.1731C7.40599 12.66 7.48503 12.116 7.44247 11.572C7.44247 11.5535 7.44247 11.5226 7.43031 11.504V11.4731C7.41815 11.4175 7.41207 11.3804 7.39991 11.331C7.33302 10.9353 7.18709 10.5335 6.97428 10.1503C6.74322 9.74227 6.42703 9.33428 6.02573 8.9572C5.91628 8.85212 5.80075 8.74703 5.67914 8.6543C5.32647 8.36377 5.04677 8.06086 4.8522 7.75796C4.34752 7.0038 4.44481 6.36709 4.60898 5.97147C4.67587 5.81075 4.76707 5.6562 4.87652 5.52639C4.88868 5.51403 4.88868 5.50785 4.89476 5.49548C4.90692 5.47694 4.913 5.47694 4.92516 5.45839L4.94341 5.43985C4.96165 5.4213 4.97989 5.40276 4.99813 5.38421C5.01637 5.3533 5.04677 5.33476 5.06501 5.31003L5.1015 5.29767L5.13798 5.24822C5.13798 5.24822 5.15622 5.23585 5.15622 5.22967C5.17446 5.22967 5.18662 5.21113 5.1927 5.21113L5.27783 5.14313C5.78251 4.82168 6.40271 4.75369 6.96211 4.98241L6.97428 4.99477C7.16277 5.06895 7.3391 5.17404 7.49719 5.32858L8.3971 6.15074L8.4275 4.90823C8.4275 4.7475 8.43966 4.57442 8.4579 4.42606L8.49439 4.09225L8.22685 3.89444C8.01403 3.75226 7.78906 3.62863 7.56408 3.5359C7.14453 3.36281 6.7189 3.28245 6.28718 3.28245C5.58185 3.28245 4.89476 3.49881 4.31104 3.91916ZM17.6941 3.57917C17.384 3.77698 17.0921 4.03043 16.8003 4.33333C16.6969 4.4446 16.5935 4.54969 16.5023 4.66714C16.1922 5.03804 15.87 5.32858 15.5538 5.52639L15.5234 5.54494C15.4018 5.61912 15.2923 5.68711 15.1707 5.73657C14.9275 5.84165 14.6782 5.88493 14.4046 5.86638C14.3742 5.86638 14.3499 5.86638 14.3195 5.86638H14.3012H14.283C14.058 5.84784 13.8938 5.7922 13.7783 5.74275L13.7601 5.73039C13.5716 5.65621 13.3952 5.55112 13.2493 5.40894L12.3555 4.60533L12.319 5.82311C12.319 5.98383 12.3068 6.14455 12.2886 6.2991L12.2399 6.63909L12.5196 6.8369C12.7325 6.97908 12.9453 7.10271 13.1703 7.19543C13.681 7.40561 14.2222 7.47979 14.7512 7.43034C14.7816 7.43034 14.8241 7.43034 14.8606 7.41797H14.891C14.9214 7.40561 14.9579 7.40561 14.9944 7.39943C15.0856 7.38707 15.1829 7.36234 15.2741 7.34379C15.4626 7.29434 15.6085 7.25107 15.7484 7.19543C15.8882 7.1398 16.0281 7.06562 16.1862 6.96671C16.5935 6.73799 16.9949 6.41655 17.3779 6.0271C17.4813 5.91583 17.5847 5.79838 17.6759 5.68711C17.9616 5.33476 18.2718 5.06277 18.5697 4.86495C19.3541 4.35188 19.9925 4.45078 20.406 4.61769C20.5762 4.68569 20.7222 4.77841 20.862 4.8835C20.8742 4.89586 20.8803 4.90204 20.8803 4.90204C20.8924 4.92059 20.8985 4.92059 20.9107 4.93295L20.9228 4.94532C20.9532 4.97622 20.9776 4.99477 20.9897 5.00095C21.0444 5.05659 21.0992 5.13077 21.16 5.21113L21.2329 5.30385C21.5491 5.78602 21.616 6.40418 21.391 6.94199L21.3789 6.96053C21.2937 7.15216 21.1843 7.31289 21.0505 7.46125L20.1932 8.38849L21.4397 8.4194C21.616 8.4194 21.7741 8.43176 21.9322 8.45031L22.2484 8.4874L22.4369 8.22159C22.595 8.00523 22.7166 7.77651 22.8078 7.54779C23.2516 6.47218 23.1179 5.24822 22.4247 4.30242C22.3761 4.24679 22.3335 4.17879 22.2848 4.12316C22.2727 4.10461 22.2544 4.08607 22.2484 4.0737L22.2362 4.06134C22.1815 3.99334 22.1268 3.93771 22.0781 3.88207C22.0234 3.82644 21.9687 3.77699 21.92 3.7399L21.9079 3.72135C21.8957 3.70899 21.8714 3.69662 21.8531 3.67808V3.6719C21.5917 3.46172 21.3059 3.29482 20.9958 3.15882C20.7526 3.05373 20.3087 2.91155 19.7371 2.91155C19.1595 2.91155 18.4481 3.0661 17.6941 3.57917ZM12.6656 0.0185449C12.3372 0.0494532 12.021 0.129815 11.717 0.253447C11.2063 0.463623 9.96586 1.16215 9.64967 2.98573C9.59495 3.32572 9.56455 3.68426 9.57671 4.05516C9.58887 4.22825 9.59495 4.37042 9.60711 4.50024C9.64359 4.98241 9.62535 5.40894 9.54022 5.77984C9.44902 6.15692 9.29093 6.47218 9.07203 6.71945L9.05379 6.73799C9.02339 6.7689 9.00515 6.78745 8.9869 6.80599L8.97474 6.81835C8.9565 6.8369 8.93826 6.85544 8.90786 6.87399L8.87746 6.89253C8.74977 7.0038 8.59776 7.10271 8.43966 7.16453H8.4275C8.23901 7.25107 8.03835 7.28816 7.82554 7.29434L6.58513 7.34998L7.44855 8.24631C7.558 8.36995 7.66137 8.49358 7.76473 8.61721L7.97147 8.87066L8.29981 8.82121C8.54911 8.78412 8.79233 8.71612 9.02339 8.62339C9.32133 8.49358 9.60711 8.32049 9.86857 8.11032C9.9537 8.04232 10.0267 7.96814 10.0996 7.89396L10.1179 7.8816V7.86923C10.1726 7.8136 10.2212 7.75796 10.2638 7.70851V7.69615C10.6286 7.28198 10.8901 6.75654 11.0299 6.1631C11.1211 5.74893 11.1698 5.29149 11.1576 4.80932C11.1576 4.6486 11.1455 4.50642 11.1272 4.35806C11.0907 3.92534 11.109 3.5359 11.1759 3.18355C11.3522 2.26866 11.8751 1.86686 12.2947 1.69995C12.4528 1.63195 12.6291 1.58868 12.7993 1.57014C12.9392 1.55777 13.0851 1.55777 13.2432 1.58868L13.3831 1.60723C13.4864 1.63814 13.5776 1.66286 13.6688 1.69995C14.1066 1.87922 14.4532 2.21921 14.6356 2.65811C14.6356 2.67047 14.6356 2.67047 14.6478 2.67047C14.7208 2.8621 14.7573 3.05991 14.7694 3.26391L14.8363 4.48169L15.7119 3.64099C15.8396 3.52972 15.9612 3.41227 16.0828 3.31954L16.3442 3.12173L16.2895 2.78174C16.2409 2.52829 16.1679 2.28103 16.0828 2.05231C15.7362 1.23015 15.0856 0.587256 14.2587 0.247266C14.0276 0.154541 13.7722 0.0741797 13.5168 0.0370899C13.3466 0.0185449 13.1581 0 12.9818 0C12.8723 0 12.7689 0 12.6656 0.0185449Z" fill="#22D6A3"/>
</g>
<defs>
<clipPath id="clip0">
<rect width="26" height="26" fill="white"/>
</clipPath>
</defs>
</svg>
